<svg width="75" height="74" viewBox="0 0 75 74" fill="none" xmlns="http://www.w3.org/2000/svg">
<path d="M58.1339 46.9279C57.9994 47.1393 57.826 47.324 57.6225 47.4726C57.4195 47.6201 57.19 47.7284 56.9462 47.792C54.8998 51.0915 52.0097 53.804 48.5648 55.6584L48.2071 55.8508L47.1616 53.4882L47.4571 53.3259C50.3636 51.7292 52.8153 49.4378 54.5865 46.6629C54.4497 46.3504 54.397 46.0084 54.4337 45.6699C54.4703 45.3315 54.595 45.0081 54.7957 44.7311C54.9965 44.454 55.2664 44.2327 55.5794 44.0884C55.8924 43.9442 56.2379 43.8819 56.5825 43.9076C56.927 43.9334 57.259 44.0463 57.5464 44.2354C57.8337 44.4245 58.0666 44.6834 58.2226 44.9871C58.3785 45.2908 58.4523 45.629 58.4367 45.969C58.4211 46.309 58.3166 46.6393 58.1335 46.9279H58.1339Z" fill="url(#paint0_linear_9032_3)"/>
<path d="M42.4726 55.0959H42.4627L42.4404 54.7306L42.4726 55.0959Z" fill="url(#paint1_linear_9032_3)"/>
<path d="M42.5613 54.3597C42.5398 54.3597 42.52 54.3597 42.4937 54.3597C42.4792 54.3597 42.4652 54.3597 42.4525 54.3597H42.4253L42.3944 54.3625C42.3836 54.3625 42.3721 54.3625 42.3589 54.3657H42.349L42.3309 54.3682H42.3062L42.2818 54.3739L42.2596 54.3771C42.2184 54.3828 42.1809 54.3901 42.143 54.3982L42.1071 54.4055L42.056 54.4177L42.0255 54.4258L41.9773 54.4396L41.9435 54.4502L41.9336 54.4538L41.8755 54.4733L41.8656 54.4774L41.8191 54.4944L41.7564 54.5204L41.728 54.5326L41.7033 54.5451C41.6951 54.5484 41.6871 54.5522 41.6793 54.5565L41.6472 54.5719L41.613 54.589C41.5982 54.5971 41.5842 54.6044 41.5644 54.6158C41.531 54.6352 41.498 54.6563 41.4642 54.677C41.4498 54.686 41.4358 54.6949 41.423 54.7046C41.4102 54.7144 41.3999 54.7209 41.3884 54.7282L41.3629 54.7481C41.3534 54.7546 41.3443 54.761 41.3352 54.7684C41.3262 54.7757 41.3105 54.787 41.299 54.7968L41.2924 54.8016C41.259 54.8288 41.226 54.8572 41.1906 54.8897L41.184 54.8954C41.1766 54.9027 41.1688 54.91 41.1655 54.9124C41.1514 54.9266 41.1374 54.9404 41.1284 54.9502C41.1193 54.9599 41.1003 54.9786 41.0872 54.9932C41.074 55.0078 41.062 55.0204 41.0505 55.0338C41.0439 55.0411 41.0365 55.0492 41.0282 55.059L40.9652 55.1202L40.9594 55.1438L40.9219 55.1969L40.8972 55.2335C40.8704 55.2708 40.8465 55.3102 40.8209 55.3552L40.8003 55.3914C40.7913 55.4076 40.7818 55.4246 40.7735 55.4417C40.7653 55.4587 40.7595 55.4693 40.7529 55.4823C40.7389 55.5107 40.7257 55.5383 40.715 55.5634C40.7043 55.5886 40.6969 55.604 40.6891 55.6255C40.6833 55.6393 40.6783 55.6531 40.6734 55.6661C40.6709 55.6734 40.6676 55.6807 40.6652 55.6888L41.0163 55.8106L40.6619 55.6966L40.6544 55.7201C40.6495 55.7323 40.6462 55.7445 40.6421 55.7566C40.638 55.7688 40.6314 55.7927 40.6264 55.8114C39.7163 55.9356 38.7986 55.998 37.8797 55.9981C27.0064 55.9981 18.1606 47.2863 18.1606 36.5777C18.1601 35.1731 18.3134 33.7725 18.6176 32.4002L20.2466 32.9562C20.0565 33.9844 19.9609 35.0273 19.9611 36.0724C19.9579 39.258 20.8541 42.3817 22.5495 45.0947C22.5495 45.1036 22.5495 45.1138 22.547 45.1235C22.5445 45.1332 22.547 45.143 22.547 45.1527V45.1746C22.5466 45.1817 22.5466 45.1887 22.547 45.1957C22.547 45.2071 22.547 45.2173 22.547 45.2237C22.547 45.2375 22.547 45.2513 22.547 45.2643C22.547 45.2773 22.547 45.3049 22.547 45.3256V45.3467L22.5495 45.3942C22.5495 45.4161 22.5528 45.4372 22.5561 45.4648C22.5561 45.4855 22.5602 45.5054 22.5627 45.5245C22.5631 45.5291 22.5631 45.5337 22.5627 45.5383C22.5627 45.5464 22.5651 45.5545 22.5668 45.5626V45.5813L22.5742 45.6109C22.5767 45.6239 22.5792 45.6361 22.5816 45.6475C22.589 45.688 22.5985 45.7234 22.6084 45.7623L22.6191 45.8029C22.6241 45.82 22.629 45.837 22.6348 45.8557C22.643 45.882 22.6521 45.908 22.6612 45.934L22.6661 45.947L23.018 45.8252L22.671 45.9592L22.6776 45.9762C22.6801 45.9835 22.6834 45.99 22.6859 45.9973C22.6921 46.0111 22.697 46.0241 22.702 46.0347C22.7201 46.0766 22.739 46.1172 22.7588 46.1564C22.7621 46.1621 22.7646 46.1678 22.7671 46.1726C22.7737 46.1856 22.7811 46.1978 22.7848 46.2043C22.793 46.2189 22.8013 46.2343 22.8103 46.2502C22.987 46.551 23.2407 46.8009 23.5462 46.9748C23.8517 47.1487 24.1982 47.2406 24.5511 47.2413C24.6649 47.2416 24.7785 47.2324 24.8906 47.2137L24.9319 47.2064C24.9875 47.1958 25.0444 47.182 25.1058 47.1658L25.1255 47.1601L25.1639 47.1487L25.2026 47.1366L25.2298 47.1268L25.271 47.1114L25.285 47.1065L25.3386 47.0846C25.353 47.0789 25.367 47.072 25.3798 47.0655L25.4334 47.0412L25.4659 47.025C25.494 47.0112 25.5212 46.9957 25.543 46.9844C25.5718 46.9685 25.5999 46.9515 25.6316 46.932C25.6786 46.9028 25.7252 46.8699 25.7664 46.8391L25.8026 46.8107L25.8253 46.7924C25.8335 46.7859 25.8418 46.7794 25.85 46.7721L25.883 46.7477L25.9077 46.7218C25.9165 46.7142 25.9249 46.7062 25.9329 46.6978C25.9452 46.6873 25.9568 46.6759 25.9716 46.6613L25.9988 46.6345C26.0223 46.611 26.0445 46.5854 26.0693 46.5578C26.0849 46.54 26.1002 46.5221 26.115 46.5038C26.1199 46.4973 26.1257 46.4908 26.1315 46.4827C26.1661 46.4389 26.1978 46.3963 26.2242 46.3565C26.2325 46.3443 26.2407 46.3313 26.2489 46.3159C26.2572 46.3005 26.2629 46.2932 26.2704 46.2818C26.2778 46.2705 26.2819 46.2632 26.2889 46.251C26.3013 46.2303 26.3128 46.2104 26.3235 46.1889C26.3318 46.1743 26.3392 46.1605 26.345 46.1483L26.354 46.13C26.3639 46.1105 26.3738 46.0894 26.3841 46.0692L26.4039 46.0225C26.4039 46.0176 26.408 46.0119 26.4113 46.0046C26.4179 45.9876 26.4253 45.9697 26.4319 45.9515C26.4418 45.9263 26.45 45.9003 26.4575 45.8784L26.4723 45.8325C26.4748 45.8236 26.4785 45.8139 26.481 45.8041C26.4834 45.7944 26.4892 45.7741 26.4933 45.7599C26.4974 45.7457 26.5024 45.7217 26.5073 45.7023L26.5106 45.6885L26.5156 45.6645C26.5189 45.6499 26.5213 45.6361 26.523 45.6264C26.5246 45.6166 26.5255 45.6109 26.5271 45.6028C26.5288 45.5947 26.5304 45.5842 26.5321 45.5724C26.5353 45.5537 26.5378 45.5359 26.5395 45.5221C26.5411 45.5083 26.5436 45.4855 26.5461 45.4681C26.5494 45.4348 26.5518 45.4007 26.5535 45.3686C26.5535 45.3516 26.5535 45.3337 26.5535 45.3224C26.5535 45.3037 26.5535 45.2846 26.5535 45.266C26.5528 44.7604 26.3558 44.2742 26.0029 43.9071C25.65 43.54 25.1679 43.3197 24.6553 43.2914C23.3778 41.0952 22.7061 38.608 22.7069 36.0769C22.7056 34.608 22.9305 33.1475 23.3741 31.7451L23.4915 31.3709L20.8875 30.6233L16.7528 29.4358L16.6411 29.7739C16.6086 29.8701 16.5781 29.9671 16.5476 30.0641L16.5394 30.0892C15.8816 32.1929 15.5482 34.3819 15.5503 36.583C15.5503 42.457 17.8725 47.9787 22.09 52.1319C26.3075 56.2851 31.9137 58.5725 37.8781 58.5725C39.2348 58.5723 40.5886 58.4517 41.9233 58.2121C42.238 58.3149 42.5734 58.3404 42.9004 58.2864L42.9441 58.2778C42.9997 58.2681 43.0566 58.2543 43.118 58.2372L43.214 58.2072C43.2231 58.2048 43.2322 58.2015 43.2412 58.1983L43.2824 58.1825L43.2981 58.1768L43.336 58.1613C43.3426 58.159 43.3491 58.1563 43.3554 58.1532L43.385 58.1402L43.4465 58.1118C43.4562 58.108 43.4656 58.1032 43.4745 58.0976C43.5033 58.0838 43.5313 58.0684 43.5569 58.053C43.5824 58.0376 43.6096 58.0221 43.6422 58.0023C43.6875 57.973 43.7349 57.9414 43.777 57.9085C43.7885 57.9004 43.7992 57.8923 43.8132 57.8809L43.8351 57.863L43.8598 57.8436L43.9253 57.7896L43.9369 57.7758C43.9388 57.7731 43.941 57.7707 43.9434 57.7685C43.9558 57.7579 43.9674 57.7466 43.9822 57.7319L44.0114 57.7023C44.0337 57.6796 44.0551 57.6561 44.079 57.6289C44.0947 57.611 44.1099 57.5931 44.1248 57.5745C44.1322 57.5664 44.138 57.5582 44.1421 57.5542C44.1742 57.5136 44.2051 57.473 44.234 57.4267C44.2422 57.4154 44.2505 57.4032 44.2587 57.3902C44.267 57.378 44.2744 57.365 44.2818 57.3529C44.2892 57.3407 44.2946 57.3322 44.3003 57.3216C44.3127 57.3021 44.3234 57.281 44.3341 57.2607C44.3415 57.2482 44.3481 57.2352 44.358 57.2165L44.3646 57.2019C44.3745 57.1824 44.3852 57.1613 44.3947 57.1398L44.4145 57.0935L44.4219 57.0765C44.4293 57.0582 44.4367 57.0387 44.4409 57.0274C44.4508 57.0006 44.4606 56.9726 44.4681 56.9499C44.473 56.9352 44.4779 56.9206 44.4821 56.9052C44.4862 56.8898 44.4907 56.8796 44.494 56.8675L44.5039 56.8309C44.508 56.8147 44.5122 56.7985 44.5154 56.7826L44.5245 56.7421C44.5286 56.725 44.5319 56.708 44.5336 56.6974L44.5369 56.6791C44.5369 56.6686 44.5402 56.6572 44.5426 56.6467L44.5509 56.5862C44.5509 56.57 44.555 56.5545 44.5558 56.5391C44.56 56.5058 44.5624 56.4722 44.5633 56.4454C44.5649 56.4275 44.5657 56.4101 44.5657 56.393C44.5657 56.3743 44.5657 56.3549 44.5657 56.337C44.5653 55.8133 44.3541 55.3111 43.9783 54.9404C43.6026 54.5698 43.093 54.3609 42.5613 54.3597ZM42.4727 55.0959H42.4628L42.4405 54.7306L42.4727 55.0959Z" fill="url(#paint2_linear_9032_3)"/>
<path d="M52.7659 43.7866L47.2161 40.2037C47.162 40.1688 47.1013 40.1449 47.0377 40.1334C46.974 40.1219 46.9087 40.123 46.8455 40.1366C46.7823 40.1502 46.7225 40.1762 46.6696 40.2128C46.6167 40.2495 46.5718 40.2962 46.5374 40.3502L46.3952 40.5771L46.375 40.6103C46.2056 40.9341 46.0178 41.2482 45.8125 41.5511C44.3983 43.6439 42.2281 45.128 39.7429 45.7017C37.2577 46.2755 34.644 45.8959 32.4327 44.6401L32.1636 44.4871L31.9625 44.7193L28.9245 48.3229L27.3721 50.1643L27.7141 50.3907C27.9119 50.521 28.1122 50.6485 28.3084 50.7666C28.357 50.7966 28.4069 50.8262 28.4563 50.8555L28.5449 50.9082C28.718 51.0089 28.8894 51.1059 29.0576 51.1956C31.6315 52.5804 34.5175 53.3061 37.4505 53.306C37.5741 53.306 37.6998 53.306 37.8181 53.302C37.8428 53.302 37.8688 53.302 37.8943 53.302H37.9149L38.0798 53.2971L38.257 53.2898L38.4057 53.2825L38.5145 53.2768C38.5673 53.2736 38.6213 53.2703 38.674 53.2663H38.688L38.7659 53.2606L38.9547 53.246L39.0956 53.2334L39.2238 53.2212C39.2909 53.2147 39.3569 53.2074 39.4257 53.2001L39.5209 53.1896C39.5584 53.1855 39.5947 53.1806 39.6276 53.1766C39.7101 53.1668 39.7925 53.1563 39.8728 53.1445C39.9338 53.1364 39.9965 53.1275 40.0525 53.1194C40.0937 53.1137 40.1349 53.108 40.1724 53.1015L40.2701 53.0861C40.4284 53.0609 40.5887 53.0329 40.7568 53.0012L40.8355 52.9866L40.8561 52.9826C40.9068 52.9728 40.9571 52.9627 41.0053 52.9521L41.0267 52.9481C41.0638 52.9408 41.1013 52.9327 41.1351 52.9253C41.2175 52.9083 41.3024 52.8904 41.3869 52.871L41.5307 52.8373L41.6436 52.8105L41.9173 52.7419C41.982 52.7257 42.0459 52.7086 42.1101 52.6908L42.132 52.6847C42.1732 52.6733 42.2144 52.6628 42.2527 52.6514L42.4242 52.6027L42.5964 52.5511L42.7201 52.513C42.835 52.4769 42.9492 52.4403 43.0638 52.4018L43.0819 52.3953C43.1363 52.3774 43.1919 52.3588 43.2467 52.3401L43.4173 52.2796C43.4829 52.2569 43.5484 52.2334 43.611 52.2094L43.7932 52.1412C43.8389 52.1234 43.8843 52.1051 43.9317 52.0872L44.04 52.0442C44.0961 52.0219 44.1517 51.9992 44.2049 51.9764L44.2271 51.9667C44.2749 51.9472 44.3231 51.9261 44.3677 51.9079L44.4694 51.8648L44.5857 51.8141C44.6574 51.7824 44.7303 51.75 44.8016 51.7171L44.8737 51.6846L45.0109 51.6193L45.0583 51.5974C45.0798 51.5876 45.0996 51.5771 45.121 51.5673C45.1325 51.5621 45.1424 51.5564 45.1494 51.5531L45.1601 51.5483L45.2211 51.5182C45.3975 51.4318 45.5747 51.3421 45.747 51.25C45.8339 51.2037 45.9201 51.157 46.0029 51.1116C46.0342 51.0941 46.0647 51.0763 46.0964 51.0592C46.1632 51.0219 46.2295 50.9833 46.2975 50.9443L46.4953 50.8287C46.5621 50.7881 46.6285 50.7475 46.6899 50.7102L46.7653 50.6647L46.7908 50.6485C46.9066 50.5758 47.0208 50.5024 47.1349 50.4281L47.2586 50.3469L47.2792 50.3323C47.3039 50.3161 47.329 50.2998 47.3521 50.2836L47.4465 50.2191C47.4935 50.1874 47.5392 50.1554 47.5821 50.1253C47.6138 50.1034 47.6459 50.0807 47.6756 50.0592C47.723 50.0259 47.7692 49.9926 47.8133 49.9605C47.8907 49.9045 47.9678 49.8473 48.044 49.7901C48.0988 49.7495 48.1532 49.7089 48.2064 49.6683C48.2451 49.6383 48.2843 49.6083 48.3239 49.5762C48.3519 49.5551 48.3803 49.5332 48.4042 49.5137L48.4207 49.5003L48.478 49.4548C48.5398 49.4049 48.6016 49.3554 48.6643 49.3039L48.6832 49.2884L48.7751 49.2117L48.9606 49.0547C49.0084 49.0141 49.0574 48.9706 49.1052 48.928L49.1176 48.9175L49.2305 48.8172L49.2486 48.801C49.3096 48.7454 49.3722 48.6894 49.4316 48.633C49.4843 48.5843 49.5367 48.535 49.5886 48.4852C49.6418 48.4357 49.6945 48.385 49.7468 48.3339C49.8107 48.2709 49.8742 48.2084 49.9356 48.1472C49.971 48.1118 50.0061 48.0769 50.0399 48.0412L50.0811 48.0006C50.0992 47.9828 50.1173 47.9641 50.1355 47.9454L50.173 47.9049C50.1911 47.8862 50.2092 47.8675 50.2232 47.8521C50.2496 47.8241 50.2756 47.7973 50.3011 47.7709C50.3399 47.7303 50.379 47.6898 50.4169 47.6463C50.4627 47.5964 50.5072 47.5465 50.5505 47.4994C50.5719 47.4759 50.5917 47.4519 50.6147 47.4268L50.6312 47.4089C50.6498 47.3886 50.6679 47.3683 50.6819 47.3509C50.7099 47.3192 50.738 47.2875 50.7643 47.2571C51.1035 46.8659 51.4307 46.4519 51.7361 46.0269C51.7748 45.9726 51.814 45.9178 51.8511 45.8646C51.8618 45.8492 51.8725 45.8338 51.8836 45.8191L52.8685 44.2302L52.7659 43.7866ZM37.4513 50.5965C35.3047 50.6029 33.183 50.1428 31.2376 49.2491L32.7529 47.6074C35.3724 48.6399 38.2675 48.7787 40.9765 48.0016C43.6854 47.2245 46.052 45.5763 47.6987 43.3199L49.4295 44.5427C49.4011 44.5833 49.3714 44.621 49.3418 44.662L49.2466 44.7883C49.2008 44.8479 49.1547 44.9072 49.1081 44.9668C49.1047 44.9703 49.1017 44.9741 49.099 44.9782L49.0924 44.9863C49.057 45.0322 49.0203 45.0768 48.984 45.1227L48.9766 45.1308C48.9383 45.1787 48.8987 45.227 48.8575 45.2765C48.8044 45.3394 48.7516 45.4023 48.6968 45.4648C48.6704 45.4961 48.6436 45.5269 48.6144 45.5586C48.5806 45.5992 48.5464 45.6353 48.5118 45.6743C48.4895 45.6998 48.4673 45.725 48.4421 45.7518C48.4265 45.7696 48.41 45.7871 48.3943 45.8049L48.3712 45.8301L48.309 45.8971L48.281 45.9271C48.2484 45.9616 48.2163 45.9957 48.1809 46.0322C48.1454 46.0687 48.1087 46.1081 48.0679 46.1483C48.0271 46.1885 47.9938 46.2246 47.9546 46.2632C47.9155 46.3017 47.88 46.3382 47.8388 46.378C47.7976 46.4178 47.7634 46.4515 47.7222 46.4904C47.681 46.5294 47.6451 46.5639 47.601 46.6053C47.592 46.6146 47.5812 46.6236 47.5689 46.6357C47.5178 46.6836 47.4654 46.7311 47.4106 46.7798C47.3694 46.8204 47.3253 46.8573 47.2816 46.8959C47.0838 47.07 46.8803 47.2397 46.6775 47.4012C46.6425 47.4288 46.6079 47.456 46.5716 47.4824C46.4306 47.5923 46.2831 47.7031 46.1294 47.8123C46.0713 47.8549 46.0136 47.8955 45.9547 47.9365L45.9242 47.9576L45.7964 48.0449L45.6889 48.1175L45.5467 48.2105C45.5368 48.2178 45.5265 48.2246 45.5158 48.2308L45.5075 48.2356C45.4639 48.264 45.4189 48.2937 45.3728 48.3221L45.3571 48.3318C45.3159 48.3578 45.2747 48.3838 45.2261 48.413L45.2178 48.4179L45.1626 48.452L45.0324 48.5303L44.9574 48.5745L44.8655 48.6273C44.8346 48.6443 44.8049 48.6614 44.7752 48.6788C44.7456 48.6963 44.7089 48.7162 44.6759 48.734L44.6347 48.7559C44.5811 48.7856 44.528 48.8148 44.4732 48.8432L44.4657 48.8473C44.4451 48.859 44.4245 48.8704 44.3973 48.8842C44.3701 48.898 44.3442 48.9126 44.3149 48.9272L44.2325 48.9678L44.12 49.0238C44.0718 49.0486 44.024 49.0721 43.9749 49.0957L43.9518 49.107C43.9077 49.1281 43.8641 49.1476 43.8158 49.1724C43.7676 49.1971 43.7206 49.217 43.6712 49.2401L43.5505 49.2945C43.5121 49.3116 43.4742 49.329 43.4326 49.3469C43.3168 49.398 43.1969 49.4488 43.0654 49.5019L42.95 49.5482C42.7176 49.6403 42.4806 49.7276 42.2457 49.8067L42.1266 49.8473L42.0071 49.8879C41.9684 49.9001 41.9288 49.9131 41.8835 49.9285C41.8464 49.9406 41.8081 49.952 41.7685 49.9634C41.7355 49.9743 41.7022 49.9841 41.6659 49.9946L41.5324 50.0328C41.4912 50.045 41.45 50.0563 41.405 50.0681L41.3131 50.0933L41.1557 50.1338L41.1203 50.1428C41.1054 50.1468 41.0906 50.1509 41.0683 50.1558C41.0061 50.1716 40.9447 50.187 40.878 50.2024C40.8536 50.2081 40.8297 50.2138 40.8017 50.2195C40.6781 50.2479 40.5545 50.2751 40.4152 50.3027C40.374 50.3108 40.3356 50.3189 40.2915 50.327C40.2544 50.3343 40.2174 50.3416 40.1741 50.3489C40.1168 50.3607 40.0591 50.3705 39.9952 50.381C39.9515 50.3891 39.9075 50.3964 39.8588 50.4037C39.8102 50.411 39.7677 50.4192 39.7286 50.4248L39.68 50.4321C39.6359 50.4386 39.5914 50.4455 39.5415 50.452C39.4591 50.4642 39.3767 50.4748 39.2942 50.4845L39.2188 50.4934L39.0898 50.508L38.9905 50.5186C38.8961 50.5283 38.8018 50.5377 38.702 50.5458L38.6275 50.5515C38.547 50.558 38.4658 50.5636 38.3839 50.5685C38.3287 50.5718 38.2739 50.575 38.2158 50.5774C38.1795 50.5799 38.1432 50.5815 38.1041 50.5831C37.9759 50.5888 37.8407 50.5929 37.692 50.5953C37.6162 50.5957 37.5341 50.5965 37.4513 50.5965Z" fill="url(#paint3_linear_9032_3)"/>
<path d="M58.7399 27.1487C58.7394 27.431 58.6775 27.7099 58.5584 27.9667C58.4393 28.2234 58.2657 28.4521 58.0493 28.6373C57.833 28.8224 57.5789 28.9598 57.3041 29.0402C57.0294 29.1206 56.7403 29.1421 56.4564 29.1032C56.1725 29.0644 55.9003 28.9661 55.6582 28.815C55.4161 28.664 55.2096 28.4636 55.0527 28.2273C54.8958 27.9911 54.7921 27.7245 54.7485 27.4455C54.705 27.1665 54.7226 26.8815 54.8002 26.6098C51.25 20.7775 44.7816 17.1617 37.8776 17.1617C34.6771 17.1584 31.5242 17.9237 28.6918 19.3913C25.8595 20.8589 23.4333 22.9846 21.6234 25.5841L27.0879 28.9934C27.3046 28.6857 27.5383 28.3846 27.7831 28.0972L27.7889 28.0907C27.8041 28.0745 27.8181 28.0575 27.833 28.0404L27.9356 27.9227C27.9628 27.8911 27.992 27.8594 28.0209 27.8281C28.1445 27.6889 28.2817 27.544 28.433 27.3923L28.5199 27.3058C28.5447 27.2802 28.5747 27.2502 28.6052 27.221C28.6625 27.1654 28.7227 27.1086 28.7833 27.0521L28.7907 27.0448C28.8179 27.0197 28.8451 26.9941 28.8731 26.9698C28.9897 26.8622 29.1121 26.7546 29.2465 26.6414L29.2539 26.6349L29.2926 26.602L29.3268 26.5728C29.3952 26.5164 29.4632 26.462 29.5304 26.408L29.6083 26.3468C29.7678 26.2222 29.9326 26.0992 30.0999 25.9815L30.1247 25.964C30.1494 25.9462 30.1754 25.9283 30.2017 25.9105L30.2339 25.8877L30.3035 25.8402C30.3307 25.8216 30.3641 25.7997 30.3962 25.7773C30.4659 25.7319 30.5335 25.6868 30.6023 25.643C30.6221 25.63 30.6435 25.6178 30.6629 25.6053L30.6818 25.5931C30.7614 25.5428 30.8434 25.4928 30.925 25.4441L31.0202 25.3877C31.129 25.324 31.2357 25.266 31.3441 25.2051C31.4022 25.1734 31.4615 25.1397 31.5238 25.1089L31.5287 25.1065C31.5749 25.0821 31.6223 25.0569 31.6701 25.033C31.6791 25.0281 31.6894 25.0233 31.6985 25.0192C31.7529 24.9916 31.8069 24.964 31.8633 24.938L31.8868 24.9267C31.9322 24.9047 31.9779 24.8828 32.0241 24.8613L32.0356 24.8556C32.083 24.8329 32.1242 24.815 32.1658 24.7956C32.1807 24.7883 32.1963 24.7818 32.2112 24.7753L32.2202 24.7712C32.2614 24.7513 32.3096 24.7306 32.3587 24.7099L32.3776 24.701C32.3974 24.6929 32.4189 24.6848 32.437 24.6758L32.7378 24.5516C32.8104 24.5232 32.8833 24.4948 32.9562 24.4676L33.091 24.4173L33.1322 24.4027C33.1866 24.382 33.2422 24.3621 33.297 24.3447C33.3519 24.3272 33.4116 24.3041 33.466 24.2882C33.5357 24.2647 33.6119 24.2412 33.6881 24.2176C33.7252 24.205 33.7656 24.1937 33.8056 24.1815L33.8419 24.1709C33.855 24.1669 33.8686 24.1628 33.8831 24.1596C33.9218 24.1482 33.9605 24.1369 33.9997 24.1263L34.0327 24.1166C34.1629 24.0804 34.2976 24.0463 34.4378 24.0118L34.5346 23.9891C34.6323 23.9664 34.7299 23.9445 34.8268 23.9246L34.8565 23.9181C34.9121 23.9067 34.9673 23.8954 35.0213 23.8848C35.1256 23.8653 35.2306 23.8467 35.3349 23.8284L35.4173 23.8162C35.4453 23.8105 35.4812 23.8057 35.5158 23.8L35.6605 23.7797C35.712 23.7724 35.7643 23.7651 35.8162 23.7594C35.8826 23.7497 35.9494 23.7419 36.0157 23.7346L36.1101 23.7241L36.141 23.7208C36.1624 23.7208 36.1855 23.7176 36.2094 23.7144L36.2807 23.7079C36.3219 23.7038 36.3631 23.6997 36.4043 23.6973C36.4278 23.6949 36.4599 23.6924 36.4913 23.6908C36.6561 23.6778 36.8209 23.6689 36.9813 23.664C37.0163 23.664 37.0575 23.6608 37.0983 23.66C37.1255 23.66 37.1552 23.66 37.1853 23.66C37.2726 23.6575 37.3604 23.6567 37.4482 23.6567C39.4483 23.656 41.42 24.1236 43.2005 25.0211C44.9811 25.9186 46.5194 27.2202 47.6885 28.8184L49.6366 27.902C48.4463 26.1812 46.8941 24.7327 45.0853 23.6546C43.2766 22.5765 41.2536 21.8942 39.1535 21.6539C37.0534 21.4136 34.9255 21.6209 32.9139 22.2618C30.9023 22.9026 29.0543 23.9621 27.495 25.3682C27.495 25.3845 27.495 25.4007 27.495 25.4169C27.4954 25.4238 27.4954 25.4307 27.495 25.4376V25.4669C27.495 25.4977 27.4909 25.5298 27.4876 25.5598L27.4818 25.6101C27.4794 25.63 27.4769 25.6507 27.4728 25.6738L27.4612 25.7376C27.4604 25.7447 27.459 25.7517 27.4571 25.7587C27.4546 25.7708 27.4522 25.7838 27.4489 25.7964C27.4448 25.8159 27.4398 25.8346 27.4349 25.854L27.4324 25.8654C27.4291 25.8776 27.4258 25.8902 27.4213 25.9023C27.4167 25.9145 27.4155 25.9218 27.4122 25.9316L27.4073 25.9502L27.3685 26.061L27.3586 26.0866L27.3454 26.1183C27.3454 26.1215 27.3421 26.1248 27.3405 26.1288C27.3347 26.1434 27.3277 26.1572 27.322 26.1694C27.3162 26.1816 27.3063 26.2035 27.2989 26.2197L27.2667 26.2818C27.2494 26.3143 27.2325 26.3427 27.2185 26.3666L27.2144 26.374C27.1847 26.4235 27.1625 26.4551 27.1509 26.471L27.125 26.5075C27.1085 26.531 27.0903 26.5542 27.0722 26.5769V26.5801L27.0574 26.5988C27.0413 26.6183 27.024 26.6394 27.0067 26.6585C26.9894 26.6775 26.9655 26.7031 26.9445 26.725L26.9338 26.736C26.9255 26.7449 26.9164 26.7538 26.9065 26.7628L26.8369 26.8273C26.8344 26.8273 26.8328 26.8314 26.8303 26.833L26.7982 26.8736L26.7326 26.9142C26.7235 26.922 26.7139 26.9291 26.7038 26.9357C26.6589 26.9698 26.6152 26.9998 26.5694 27.0286C26.5406 27.0465 26.5142 27.0627 26.487 27.0789C26.4598 27.0952 26.4339 27.1077 26.4075 27.1195C26.396 27.126 26.3844 27.1317 26.3716 27.1374L26.3189 27.1625C26.3024 27.1698 26.2876 27.1763 26.2731 27.1812L26.2657 27.1845L26.199 27.2206H26.1788L26.1433 27.236L26.1186 27.2384C26.1101 27.2416 26.1014 27.2443 26.0926 27.2466C26.0836 27.2498 26.0745 27.2522 26.0654 27.2547L26.0457 27.2612C25.9876 27.2766 25.9315 27.2908 25.8767 27.3017L25.8495 27.3066L25.8314 27.3099C25.4257 27.3782 25.0084 27.3225 24.6359 27.1502C24.2633 26.9778 23.9534 26.6971 23.7478 26.3459L23.6958 26.2518C23.6769 26.2136 23.6579 26.1747 23.6406 26.1353C23.6357 26.1239 23.6303 26.1118 23.6262 26.1004L23.6188 26.0842L23.6089 26.057L23.5916 26.0099C23.585 25.9904 23.5784 25.9693 23.5718 25.9494C23.5652 25.9295 23.5611 25.9153 23.5561 25.8975L23.5438 25.8524C23.5351 25.8183 23.5269 25.7846 23.5203 25.7506V25.7449L23.5063 25.7156V25.6592C23.5063 25.6544 23.5063 25.6495 23.5063 25.6446L23.5038 25.6276C23.5038 25.6276 23.5038 25.6235 23.5038 25.6219C23.5031 25.6147 23.502 25.6075 23.5005 25.6004V25.5979L23.4964 25.5574C23.4964 25.5371 23.4931 25.5168 23.4923 25.4961C23.4914 25.4754 23.4898 25.4604 23.489 25.4425V25.4218C23.489 25.4023 23.489 25.3812 23.489 25.3634C23.489 25.3455 23.489 25.3333 23.489 25.3183V25.3061C23.489 25.2915 23.489 25.2777 23.489 25.2631C23.489 25.2485 23.489 25.2347 23.4914 25.2225C23.4914 25.2014 23.4947 25.1819 23.4964 25.1608L23.5022 25.1134C23.5046 25.0939 23.5071 25.0752 23.5104 25.0573L23.5137 25.0383C23.5137 25.0293 23.5162 25.0196 23.5178 25.0099L23.5203 24.9969C23.5342 24.9265 23.5517 24.8569 23.5726 24.7883L23.5792 24.768C23.5792 24.7635 23.5825 24.7586 23.5842 24.7529C23.5858 24.7473 23.5908 24.7318 23.5949 24.7213C23.5949 24.7172 23.5974 24.7132 23.599 24.7091L23.6039 24.6953C23.6157 24.6596 23.6295 24.6245 23.6452 24.5902C23.6575 24.5614 23.6699 24.5338 23.6839 24.5062C23.688 24.4964 23.6946 24.4822 23.702 24.4684C23.7094 24.4546 23.7202 24.4335 23.7305 24.4165L23.7527 24.3759C23.775 24.3378 23.7997 24.3004 23.8236 24.2627L23.8537 24.2221C23.871 24.1973 23.8891 24.173 23.9081 24.1494L23.9147 24.1413C23.9188 24.1356 23.9242 24.13 23.9283 24.1243L23.9373 24.1101L23.9571 24.0898C23.9629 24.0825 23.9695 24.076 23.9761 24.0687L24.0585 23.9741H24.0651C24.0758 23.9635 24.0865 23.9522 24.0989 23.9416L24.1248 23.9169C24.157 23.8877 24.19 23.8592 24.2225 23.8329L24.2349 23.8231C24.2456 23.8142 24.2563 23.8061 24.2678 23.798L24.2876 23.7833C24.2986 23.7738 24.3103 23.7651 24.3227 23.7574L24.349 23.7391L24.3861 23.7139C24.4273 23.6888 24.4591 23.6685 24.4933 23.649C24.5032 23.6429 24.5131 23.6381 24.5221 23.6324L24.5633 23.6113C24.5724 23.6064 24.5806 23.6023 24.5901 23.5983L24.6025 23.5918L24.6354 23.5755L24.6668 23.5617L24.6795 23.5565L24.7001 23.5467L24.7298 23.5346L24.8069 23.5053L24.8638 23.4859C24.8765 23.4818 24.8955 23.4753 24.9153 23.4704C24.9276 23.4664 24.9408 23.4627 24.9532 23.4595L24.9668 23.4554L24.9824 23.4505L25.0344 23.4384C25.0459 23.4359 25.0595 23.4327 25.0756 23.4302C25.1077 23.4229 25.1407 23.4173 25.1741 23.4116L25.198 23.4002H25.2618H25.2783C25.2887 23.3988 25.2992 23.3979 25.3096 23.3978H25.327C25.3389 23.3964 25.3508 23.3955 25.3628 23.3953C25.3644 23.3949 25.3661 23.3949 25.3678 23.3953H25.3834H25.4156H25.4254C25.4925 23.3921 25.5596 23.3929 25.6266 23.3978C27.5223 21.6822 29.7793 20.3999 32.2363 19.6425C34.6933 18.8851 37.2898 18.6714 39.8405 19.0164C42.3911 19.3614 44.8329 20.2568 46.9916 21.6386C49.1503 23.0204 50.9726 24.8545 52.3284 27.0099C52.6058 27.4495 52.8642 27.9053 53.0991 28.3643L53.2639 28.6845L46.6913 32.1063L45.5786 30.2718C44.3338 28.5805 42.577 27.3209 40.5604 26.6738C38.5437 26.0267 36.3707 26.0254 34.3531 26.6699C32.3356 27.3145 30.5772 28.5718 29.3302 30.2616C28.0833 31.9514 27.4118 33.9867 27.4122 36.0756C27.4091 37.4677 27.7069 38.8444 28.2859 40.1143C28.3959 40.3579 28.5191 40.6014 28.653 40.8408L28.7874 41.0811L26.9156 42.9237L26.6684 42.526C26.4541 42.1803 26.2576 41.8244 26.0795 41.4594C25.2911 39.8407 24.8675 38.0732 24.8378 36.2782C24.8082 34.4832 25.1731 32.7031 25.9076 31.06L17.8716 26.7944L18.0397 26.4742C19.8625 23.0038 22.5913 20.0744 25.9452 17.9874C29.2991 15.9003 33.157 14.731 37.1221 14.5997C41.0872 14.4684 45.0162 15.3799 48.5048 17.2404C51.9935 19.1009 54.9158 21.8432 56.9712 25.1852C57.4581 25.2445 57.9063 25.4767 58.2319 25.8381C58.5575 26.1996 58.7381 26.6656 58.7399 27.1487Z" fill="url(#paint4_linear_9032_3)"/>
<defs>
<linearGradient id="paint0_linear_9032_3" x1="-56.3849" y1="96.5894" x2="79.5468" y2="36.2495" gradientUnits="userSpaceOnUse">
<stop stop-color="#5CCAEB"/>
<stop offset="0.55" stop-color="#65C5E7"/>
<stop offset="0.99" stop-color="#BB7BB5"/>
</linearGradient>
<linearGradient id="paint1_linear_9032_3" x1="-56.0607" y1="97.3284" x2="79.8745" y2="36.9848" gradientUnits="userSpaceOnUse">
<stop stop-color="#5CCAEB"/>
<stop offset="0.55" stop-color="#65C5E7"/>
<stop offset="0.99" stop-color="#BB7BB5"/>
</linearGradient>
<linearGradient id="paint2_linear_9032_3" x1="-62.1911" y1="83.5101" x2="73.7406" y2="23.1702" gradientUnits="userSpaceOnUse">
<stop stop-color="#5CCAEB"/>
<stop offset="0.55" stop-color="#65C5E7"/>
<stop offset="0.99" stop-color="#BB7BB5"/>
</linearGradient>
<linearGradient id="paint3_linear_9032_3" x1="-59.2328" y1="90.1736" x2="76.6989" y2="29.8337" gradientUnits="userSpaceOnUse">
<stop stop-color="#5CCAEB"/>
<stop offset="0.55" stop-color="#65C5E7"/>
<stop offset="0.99" stop-color="#BB7BB5"/>
</linearGradient>
<linearGradient id="paint4_linear_9032_3" x1="-67.7937" y1="70.8883" x2="68.138" y2="10.5484" gradientUnits="userSpaceOnUse">
<stop stop-color="#5CCAEB"/>
<stop offset="0.55" stop-color="#65C5E7"/>
<stop offset="0.99" stop-color="#BB7BB5"/>
</linearGradient>
</defs>
</svg>
