<svg width="38" height="27" viewBox="0 0 38 27" fill="none" xmlns="http://www.w3.org/2000/svg">
<path d="M11.9544 26.9063C26.2905 26.9063 34.1339 16.5892 34.1339 7.64509C34.1339 7.35505 34.1265 7.05857 34.1117 6.76853C35.6375 5.81029 36.9542 4.62338 38 3.26357C36.579 3.81261 35.0703 4.17118 33.5254 4.32704C35.152 3.48028 36.37 2.15005 36.9535 0.58296C35.4232 1.37055 33.7497 1.92612 32.0046 2.22587C30.8288 1.14093 29.2742 0.422565 27.5812 0.181851C25.8881 -0.0588642 24.1509 0.191475 22.6381 0.894163C21.1253 1.59685 19.9212 2.71275 19.2119 4.06933C18.5027 5.42592 18.3278 6.94763 18.7143 8.39919C15.6156 8.26416 12.5842 7.56512 9.81664 6.34742C7.04904 5.12971 4.60701 3.42051 2.64887 1.33062C1.65363 2.82074 1.34909 4.58404 1.79713 6.26216C2.24517 7.94027 3.41218 9.40727 5.06098 10.365C3.82316 10.3309 2.61246 10.0415 1.52891 9.52067V9.60446C1.5278 11.1682 2.15032 12.6841 3.29066 13.8943C4.43099 15.1046 6.01876 15.9346 7.78406 16.2431C6.63742 16.5156 5.43397 16.5553 4.26684 16.3591C4.76497 17.704 5.73416 18.8803 7.03914 19.7237C8.34412 20.5672 9.91978 21.0359 11.5462 21.0642C8.78501 22.9478 5.37411 23.9695 1.86289 23.9646C1.2402 23.9638 0.618132 23.9307 0 23.8654C3.56702 25.8527 7.71642 26.9082 11.9544 26.9063Z" fill="white"/>
</svg>
